<svg class="svg-icon" style="width: 1em; height: 1em;vertical-align: middle;fill: currentColor;overflow: hidden;" viewBox="0 0 1024 1024" version="1.1" xmlns="http://www.w3.org/2000/svg"><path d="M1022.72 607.872V113.152a64.042667 64.042667 0 0 0-9.472-33.877333c-18.517333-29.994667-57.856-39.424-86.912-21.504a188.586667 188.586667 0 0 0-93.354667 134.613333 224.682667 224.682667 0 0 0-162.474666 89.984 63.402667 63.402667 0 0 0-12.330667 37.802667A64.128 64.128 0 0 0 722.133333 384h44.714667c44.202667 0 64 24.106667 64 48 0 12.032-4.906667 23.253333-13.866667 31.658667-11.434667 10.709333-28.757333 16.341333-50.133333 16.341333H253.653333a365.226667 365.226667 0 0 0-214.954666 79.488 96.597333 96.597333 0 0 0-36.522667 91.946667C29.866667 836.565333 213.461333 1024 510.848 1024a32 32 0 0 0 0-64c-247.210667 0-381.098667-136.32-428.032-256h140.032c82.730667 0 137.002667 38.741333 194.474667 79.744 39.893333 28.458667 80.981333 57.770667 132.096 74.24 11.904 29.610667 45.482667 83.797333 139.093333 130.645333 47.445333 23.765333 87.808 31.829333 120.789333 31.829334 69.12 0 105.898667-35.626667 108.117334-37.845334a32 32 0 0 0 4.010666-40.362666l-35.242666-52.821334a403.754667 403.754667 0 0 0 136.533333-281.557333z m-229.248 142.378667a32 32 0 1 0-53.248 35.498666l109.354667 164.053334c-24.277333 8.874667-67.968 13.781333-132.437334-18.432-98.56-49.28-110.634667-104.021333-110.677333-104.021334a32 32 0 0 0-23.936-26.410666c-47.701333-11.904-86.741333-39.808-128.042667-69.290667C394.325333 688.725333 326.101333 640 222.848 640H65.365333a33.066667 33.066667 0 0 1 12.8-30.122667 301.653333 301.653333 0 0 1 176.682667-65.877333h512c84.053333 0 128-56.32 128-112s-43.946667-112-128-112l-44.885333 0.426667a160.042667 160.042667 0 0 1 138.837333-64.469334 31.957333 31.957333 0 0 0 33.877333-32.384 125.013333 125.013333 0 0 1 64-110.634666l0.042667 493.141333a338.944 338.944 0 0 1-108.202667 229.802667l-57.045333-85.632z"  /><path d="M126.848 192a32 32 0 0 0 32-32c0-25.642667 9.984-49.749333 28.16-67.84 18.133333-18.133333 42.24-28.117333 67.84-28.117333a96.213333 96.213333 0 0 1 96 96V384a32 32 0 0 0 64 0V160c0-52.949333 43.050667-96 96-96s96 43.050667 96 96a32 32 0 0 0 64 0A160.170667 160.170667 0 0 0 510.848 0a159.445333 159.445333 0 0 0-128.042667 65.024A159.530667 159.530667 0 0 0 254.890667 0.042667h-0.042667a160.170667 160.170667 0 0 0-160 159.957333c0 17.664 14.336 32 32 32z"  /><path d="M526.848 656m-48 0a48 48 0 1 0 96 0 48 48 0 1 0-96 0Z"  /></svg>